<mxfile host="app.diagrams.net" modified="2021-12-09T06:02:51.416Z" agent="5.0 (Windows NT 10.0; Win64; x64) AppleWebKit/537.36 (KHTML, like Gecko) Chrome/96.0.4664.45 Safari/537.36" etag="wDL67zk58VyQwv8S_vqz" version="15.7.3" type="github">
  <diagram id="mrtA_bh7W3MZyRI0lBSU" name="第 1 页">
    <mxGraphModel dx="1422" dy="762" grid="1" gridSize="10" guides="1" tooltips="1" connect="1" arrows="1" fold="1" page="1" pageScale="1" pageWidth="827" pageHeight="1169" background="none" math="0" shadow="1">
      <root>
        <mxCell id="0" />
        <mxCell id="1" parent="0" />
        <mxCell id="HNSjOoolBvw5SKJHr6Ws-1" value="" style="rounded=1;whiteSpace=wrap;html=1;absoluteArcSize=1;arcSize=14;strokeWidth=2;" vertex="1" parent="1">
          <mxGeometry x="110" y="90" width="610" height="430" as="geometry" />
        </mxCell>
        <mxCell id="HNSjOoolBvw5SKJHr6Ws-2" value="" style="rounded=1;whiteSpace=wrap;html=1;absoluteArcSize=1;arcSize=14;strokeWidth=2;" vertex="1" parent="1">
          <mxGeometry x="150" y="350" width="240" height="120" as="geometry" />
        </mxCell>
        <mxCell id="HNSjOoolBvw5SKJHr6Ws-3" value="micro-card" style="strokeWidth=2;html=1;shape=mxgraph.flowchart.multi-document;whiteSpace=wrap;" vertex="1" parent="1">
          <mxGeometry x="371" y="200" width="88" height="60" as="geometry" />
        </mxCell>
        <mxCell id="HNSjOoolBvw5SKJHr6Ws-4" value="&lt;font style=&quot;font-size: 20px&quot;&gt;主应用&lt;/font&gt;" style="text;html=1;strokeColor=none;fillColor=none;align=center;verticalAlign=middle;whiteSpace=wrap;rounded=0;" vertex="1" parent="1">
          <mxGeometry x="120" y="110" width="80" height="30" as="geometry" />
        </mxCell>
        <mxCell id="HNSjOoolBvw5SKJHr6Ws-5" value="&lt;font style=&quot;font-size: 20px&quot;&gt;微应用&lt;/font&gt;" style="text;html=1;strokeColor=none;fillColor=none;align=center;verticalAlign=middle;whiteSpace=wrap;rounded=0;" vertex="1" parent="1">
          <mxGeometry x="160" y="360" width="80" height="30" as="geometry" />
        </mxCell>
        <mxCell id="HNSjOoolBvw5SKJHr6Ws-8" value="" style="endArrow=classic;startArrow=classic;html=1;rounded=0;fontSize=20;entryX=0.5;entryY=0.88;entryDx=0;entryDy=0;entryPerimeter=0;exitX=0.296;exitY=0.017;exitDx=0;exitDy=0;exitPerimeter=0;" edge="1" parent="1" source="HNSjOoolBvw5SKJHr6Ws-2" target="HNSjOoolBvw5SKJHr6Ws-3">
          <mxGeometry width="50" height="50" relative="1" as="geometry">
            <mxPoint x="299" y="410" as="sourcePoint" />
            <mxPoint x="349" y="360" as="targetPoint" />
          </mxGeometry>
        </mxCell>
        <mxCell id="HNSjOoolBvw5SKJHr6Ws-9" value="" style="endArrow=classic;startArrow=classic;html=1;rounded=0;fontSize=20;exitX=0.409;exitY=0.133;exitDx=0;exitDy=0;exitPerimeter=0;" edge="1" parent="1" source="HNSjOoolBvw5SKJHr6Ws-3" target="HNSjOoolBvw5SKJHr6Ws-4">
          <mxGeometry width="50" height="50" relative="1" as="geometry">
            <mxPoint x="400" y="270" as="sourcePoint" />
            <mxPoint x="450" y="220" as="targetPoint" />
          </mxGeometry>
        </mxCell>
        <mxCell id="HNSjOoolBvw5SKJHr6Ws-10" value="" style="rounded=1;whiteSpace=wrap;html=1;absoluteArcSize=1;arcSize=14;strokeWidth=2;" vertex="1" parent="1">
          <mxGeometry x="440" y="350" width="240" height="120" as="geometry" />
        </mxCell>
        <mxCell id="HNSjOoolBvw5SKJHr6Ws-11" value="&lt;font style=&quot;font-size: 20px&quot;&gt;微应用&lt;/font&gt;" style="text;html=1;strokeColor=none;fillColor=none;align=center;verticalAlign=middle;whiteSpace=wrap;rounded=0;" vertex="1" parent="1">
          <mxGeometry x="450" y="360" width="80" height="30" as="geometry" />
        </mxCell>
        <mxCell id="HNSjOoolBvw5SKJHr6Ws-12" value="" style="endArrow=classic;startArrow=classic;html=1;rounded=0;fontSize=20;exitX=0.283;exitY=-0.008;exitDx=0;exitDy=0;exitPerimeter=0;entryX=0.614;entryY=0.85;entryDx=0;entryDy=0;entryPerimeter=0;" edge="1" parent="1" source="HNSjOoolBvw5SKJHr6Ws-10" target="HNSjOoolBvw5SKJHr6Ws-3">
          <mxGeometry width="50" height="50" relative="1" as="geometry">
            <mxPoint x="390" y="400" as="sourcePoint" />
            <mxPoint x="300" y="280" as="targetPoint" />
          </mxGeometry>
        </mxCell>
      </root>
    </mxGraphModel>
  </diagram>
</mxfile>
